<svg width="23" height="23" viewBox="0 0 23 23" fill="none" xmlns="http://www.w3.org/2000/svg">
<path fill-rule="evenodd" clip-rule="evenodd" d="M4.14251 4.96813C3.50504 5.56005 3.07812 6.52049 3.07812 8.0271C3.07812 8.41542 2.76332 8.73022 2.375 8.73022C1.98668 8.73022 1.67188 8.41542 1.67188 8.0271C1.67188 6.25246 2.18246 4.86915 3.18562 3.93763C4.17936 3.01488 5.54847 2.63647 7.0625 2.63647H16.4375C17.9516 2.63647 19.3207 3.01488 20.3143 3.93763C21.3176 4.86915 21.8281 6.25246 21.8281 8.0271V14.5896C21.8281 16.3643 21.3176 17.7476 20.3143 18.6791C19.3207 19.6019 17.9516 19.9802 16.4375 19.9802H7.0625C6.67418 19.9802 6.35938 19.6654 6.35938 19.2771C6.35938 18.8888 6.67418 18.574 7.0625 18.574H16.4375C17.7359 18.574 18.7106 18.2492 19.3575 17.6486C19.9949 17.0566 20.4219 16.0962 20.4219 14.5896V8.0271C20.4219 6.52049 19.9949 5.56005 19.3575 4.96813C18.7106 4.36745 17.7359 4.04272 16.4375 4.04272H7.0625C5.76403 4.04272 4.78939 4.36745 4.14251 4.96813Z" fill="#292D32"/>
<path opacity="0.4" fill-rule="evenodd" clip-rule="evenodd" d="M16.9869 8.05706C17.2292 8.36049 17.1797 8.80292 16.8763 9.04527L13.9411 11.3897C12.7192 12.3625 10.7715 12.3625 9.54959 11.3897L9.54785 11.3883L6.62286 9.04458C6.31981 8.80176 6.271 8.35925 6.51382 8.05621C6.75664 7.75316 7.19915 7.70435 7.5022 7.94717L10.4263 10.2902C11.1356 10.8541 12.3558 10.854 13.0648 10.2898C13.0648 10.2899 13.065 10.2898 13.0648 10.2898L15.9988 7.94649C16.3021 7.70414 16.7445 7.75365 16.9869 8.05706Z" fill="#292D32"/>
<path opacity="0.4" fill-rule="evenodd" clip-rule="evenodd" d="M1.67188 15.5271C1.67188 15.1388 1.98668 14.824 2.375 14.824H8C8.38832 14.824 8.70312 15.1388 8.70312 15.5271C8.70312 15.9154 8.38832 16.2302 8 16.2302H2.375C1.98668 16.2302 1.67188 15.9154 1.67188 15.5271Z" fill="#292D32"/>
<path opacity="0.4" fill-rule="evenodd" clip-rule="evenodd" d="M1.67188 11.7771C1.67188 11.3888 1.98668 11.074 2.375 11.074H5.1875C5.57582 11.074 5.89062 11.3888 5.89062 11.7771C5.89062 12.1654 5.57582 12.4802 5.1875 12.4802H2.375C1.98668 12.4802 1.67188 12.1654 1.67188 11.7771Z" fill="#292D32"/>
</svg>
