<svg width="23" height="23" viewBox="0 0 23 23" fill="none" xmlns="http://www.w3.org/2000/svg">
<path opacity="0.4" fill-rule="evenodd" clip-rule="evenodd" d="M12.7352 2.11011L13.434 2.18771C17.2303 2.60929 20.2295 5.60437 20.6552 9.4007L20.7336 10.0995L19.3361 10.2561L19.2577 9.5574C18.9053 6.41436 16.422 3.93443 13.2789 3.58538L12.5801 3.50777L12.7352 2.11011Z" fill="#292D32"/>
<path opacity="0.4" fill-rule="evenodd" clip-rule="evenodd" d="M12.8013 5.3855L13.4916 5.51957C15.4336 5.89679 16.9508 7.41544 17.3289 9.3566L17.4633 10.0467L16.083 10.3157L15.9486 9.62549C15.6799 8.24603 14.6021 7.1678 13.2235 6.90002L12.5332 6.76595L12.8013 5.3855Z" fill="#292D32"/>
<path fill-rule="evenodd" clip-rule="evenodd" d="M6.07376 1.95776L9.75526 7.01474L8.13812 9.82329C8.19561 9.99279 8.28802 10.2368 8.42569 10.5274C8.70641 11.1197 9.1704 11.8946 9.90123 12.6255C10.6754 13.3997 11.497 13.9072 12.1257 14.2208C12.4385 14.3769 12.7009 14.4835 12.8819 14.5503L15.6824 12.9378L20.8741 16.7661L20.5711 17.3074C19.7036 18.8573 18.5963 19.9647 17.0462 20.8323L16.9011 20.9135L16.735 20.921C12.1612 21.1305 8.22834 18.6434 5.58162 15.565C4.25373 14.0205 3.22737 12.3038 2.58856 10.6514C1.95459 9.01147 1.67947 7.37417 1.93424 6.01197L1.95657 5.89257L2.01767 5.78758C2.89402 4.28171 4.0254 3.15921 5.52442 2.27997L6.07376 1.95776ZM12.9594 15.317C12.7734 15.9952 12.7733 15.9951 12.773 15.995L12.7715 15.9947L12.7689 15.9939L12.7615 15.9919L12.7388 15.9853C12.7201 15.9798 12.6945 15.972 12.6625 15.9619C12.5985 15.9415 12.5086 15.9114 12.397 15.8703C12.1741 15.7881 11.8632 15.6614 11.4981 15.4792C10.7694 15.1158 9.8132 14.5262 8.90687 13.6198C8.03654 12.7495 7.48723 11.8308 7.15494 11.1296C6.98846 10.7783 6.87522 10.4792 6.80268 10.264C6.76637 10.1563 6.74016 10.0694 6.72249 10.0072C6.71365 9.97611 6.70694 9.95108 6.70217 9.93279L6.69643 9.91029L6.69461 9.90289L6.69396 9.90017L6.69369 9.89904C6.69363 9.89886 6.69346 9.89811 7.37745 9.73526L6.69346 9.89811L6.62875 9.62643L8.08101 7.10426L5.69892 3.83219C4.70452 4.50931 3.9293 5.33229 3.29659 6.3874C3.14264 7.38442 3.34025 8.69586 3.90022 10.1443C4.47751 11.6376 5.41771 13.2173 6.64794 14.6482C9.08312 17.4805 12.5685 19.6388 16.504 19.5226C17.5706 18.9008 18.369 18.1515 19.0243 17.1493L15.5876 14.615L13.0561 16.0727L12.773 15.995L12.9594 15.317Z" fill="#292D32"/>
</svg>
